<?xml version="1.0" standalone="no"?>
<!DOCTYPE svg PUBLIC "-//W3C//DTD SVG 20010904//EN"
 "http://www.w3.org/TR/2001/REC-SVG-20010904/DTD/svg10.dtd">
<svg version="1.0" xmlns="http://www.w3.org/2000/svg"
 width="256.000000pt" height="256.000000pt" viewBox="0 0 256.000000 256.000000"
 preserveAspectRatio="xMidYMid meet">
<metadata>
Created by potrace 1.11, written by Peter Selinger 2001-2013
</metadata>
<g transform="translate(0.000000,256.000000) scale(0.100000,-0.100000)"
fill="#000000" stroke="none">
<path d="M0 1280 l0 -1280 1280 0 1280 0 0 1280 0 1280 -1280 0 -1280 0 0
-1280z m862 273 c3 -529 4 -539 25 -593 57 -141 175 -209 360 -210 217 0 344
89 382 268 7 35 11 223 11 562 l0 510 146 0 145 0 -3 -562 c-4 -534 -5 -566
-25 -628 -69 -220 -216 -344 -454 -386 -130 -23 -363 -15 -469 16 -208 60
-332 185 -387 391 -14 56 -17 135 -20 617 l-4 552 145 0 145 0 3 -537z"/>
</g>
</svg>
